<svg width="19" height="18" viewBox="0 0 19 18" fill="none" xmlns="http://www.w3.org/2000/svg">
<path d="M4.00005 18L5.00005 18L14.4301 18C15.5001 18 16.4101 17.2906 16.6201 16.2953L17.9601 9.94235C18.2301 8.62941 17.1801 7.41176 15.7701 7.41176L11.5401 7.41176L13.0601 2.18118C13.3801 1.09059 12.5401 -4.76127e-07 11.3801 -3.74716e-07C10.8001 -3.24011e-07 10.2401 0.254117 9.86005 0.688235L4.00005 7.41177L5.24801e-05 7.41177L5.34058e-05 18L4.00005 18ZM10.6001 1.40823C10.7901 1.18588 11.0801 1.05882 11.3801 1.05882C11.6401 1.05882 11.8801 1.17529 12.0101 1.37647C12.0801 1.48235 12.1601 1.65176 12.1001 1.87412L10.5801 7.10471L10.1801 8.47059L11.5401 8.47059L15.7701 8.47059C16.1801 8.47059 16.5701 8.65059 16.8001 8.95765C16.9201 9.11647 17.0501 9.38118 16.9801 9.72L15.6401 16.0729C15.5401 16.5706 15.0301 16.9412 14.4301 16.9412L5.00005 16.9412L5.00005 7.82471L10.6001 1.40823ZM1.00005 8.47059L4.00005 8.47059L4.00005 16.9412L1.00005 16.9412L1.00005 8.47059Z" fill="#F1F1F1"/>
</svg>
