<svg width="19" height="18" viewBox="0 0 19 18" fill="none" xmlns="http://www.w3.org/2000/svg">
<path d="M14.0025 6.10352e-05L13.0025 6.10352e-05L3.57251 6.10352e-05C2.50251 6.10352e-05 1.59251 0.709473 1.38251 1.70477L0.0425094 8.05771C-0.227491 9.37065 0.822509 10.5883 2.23251 10.5883H6.46251L4.94251 15.8189C4.62251 16.9095 5.46251 18.0001 6.62251 18.0001C7.20251 18.0001 7.76251 17.7459 8.14251 17.3118L14.0025 10.5883H18.0025V6.10352e-05L14.0025 6.10352e-05ZM7.40251 16.5918C7.21251 16.8142 6.92251 16.9412 6.62251 16.9412C6.36251 16.9412 6.12251 16.8248 5.99251 16.6236C5.92251 16.5177 5.84251 16.3483 5.90251 16.1259L7.42251 10.8954L7.82251 9.52947H6.46251H2.23251C1.82251 9.52947 1.43251 9.34947 1.20251 9.04241C1.08251 8.88359 0.952509 8.61888 1.02251 8.28006L2.36251 1.92712C2.46251 1.42947 2.97251 1.05888 3.57251 1.05888H13.0025V10.1754L7.40251 16.5918ZM17.0025 9.52947H14.0025V1.05888H17.0025V9.52947Z" fill="#F1F1F1"/>
</svg>
