<svg width="25" height="18" viewBox="0 0 25 18" fill="none" xmlns="http://www.w3.org/2000/svg">
<path fill-rule="evenodd" clip-rule="evenodd" d="M2 1.5H23C23.2761 1.5 23.5 1.72386 23.5 2V16C23.5 16.2761 23.2761 16.5 23 16.5H2C1.72386 16.5 1.5 16.2761 1.5 16V2C1.5 1.72386 1.72386 1.5 2 1.5ZM0 2C0 0.89543 0.895431 0 2 0H23C24.1046 0 25 0.895431 25 2V16C25 17.1046 24.1046 18 23 18H2C0.89543 18 0 17.1046 0 16V2ZM13 8.5C12.7239 8.5 12.5 8.72386 12.5 9V14C12.5 14.2761 12.7239 14.5 13 14.5H21C21.2761 14.5 21.5 14.2761 21.5 14V9C21.5 8.72386 21.2761 8.5 21 8.5H13Z" fill="#F1F1F1"/>
</svg>
