<svg width="71" height="52" viewBox="0 0 71 52" fill="none" xmlns="http://www.w3.org/2000/svg">
<path d="M15.2506 50.9999C16.4952 50.9999 51.7467 50.9999 55.3263 50.9999C64.5987 51.0296 69.5766 46.1219 69.5766 37.4068V14.6229C69.5766 5.9078 64.5987 1 55.3263 1H15.2506C6.00943 1 1 5.87798 1 14.6229V37.4068C1 46.1516 6.00943 51.0297 15.2506 50.9999ZM13.8503 29.8816C12.7613 29.8816 11.8901 29.0487 11.8901 27.9482C11.8901 26.9369 12.7613 26.0743 13.8503 26.0743H27.6341C28.7543 26.0743 29.5944 26.9369 29.5944 27.9482C29.5944 29.0487 28.7543 29.8816 27.6341 29.8816H13.8503ZM35.3506 29.8816C34.2616 29.8816 33.3904 29.0487 33.3904 27.9482C33.3904 26.9369 34.2616 26.0743 35.3506 26.0743H57.1934C58.2512 26.0743 59.1535 26.9369 59.1535 27.9482C59.1535 29.0487 58.2512 29.8816 57.1934 29.8816H35.3506ZM13.8503 38.4479C12.7613 38.4479 11.8901 37.6448 11.8901 36.5739C11.8901 35.5032 12.7613 34.6406 13.8503 34.6406H19.3265C20.4467 34.6406 21.3178 35.5032 21.3178 36.5739C21.3178 37.6448 20.4467 38.4479 19.3265 38.4479H13.8503ZM27.0429 38.4479C25.9539 38.4479 25.0828 37.6448 25.0828 36.5739C25.0828 35.5032 25.9539 34.6406 27.0429 34.6406H43.5649C44.6851 34.6406 45.5252 35.5032 45.5252 36.5739C45.5252 37.6448 44.6851 38.4479 43.5649 38.4479H27.0429ZM51.2813 38.4479C50.1923 38.4479 49.29 37.6448 49.29 36.5739C49.29 35.5032 50.1923 34.6406 51.2813 34.6406H57.1934C58.2512 34.6406 59.1535 35.5032 59.1535 36.5739C59.1535 37.6448 58.2512 38.4479 57.1934 38.4479H51.2813Z" fill="#F1F1F1" stroke="#F1F1F1" stroke-width="1.32757"/>
</svg>
