<svg width="18" height="18" viewBox="0 0 18 18" fill="none" xmlns="http://www.w3.org/2000/svg">
<path fill-rule="evenodd" clip-rule="evenodd" d="M11 18V13C11 11.8954 11.8954 11 13 11H18V12.5H13C12.7239 12.5 12.5 12.7239 12.5 13V18H11Z" fill="#F1F1F1"/>
<path fill-rule="evenodd" clip-rule="evenodd" d="M18 7L13 7C11.8954 7 11 6.10457 11 5V0H12.5V5C12.5 5.27614 12.7239 5.5 13 5.5H18V7Z" fill="#F1F1F1"/>
<path fill-rule="evenodd" clip-rule="evenodd" d="M0 11L5 11C6.10457 11 7 11.8954 7 13L7 18H5.5L5.5 13C5.5 12.7239 5.27614 12.5 5 12.5L0 12.5V11Z" fill="#F1F1F1"/>
<path fill-rule="evenodd" clip-rule="evenodd" d="M7 0L7 5C7 6.10457 6.10457 7 5 7L0 7L0 5.5L5 5.5C5.27614 5.5 5.5 5.27614 5.5 5L5.5 0L7 0Z" fill="#F1F1F1"/>
</svg>
