<svg width="18" height="18" viewBox="0 0 18 18" fill="none" xmlns="http://www.w3.org/2000/svg">
<path fill-rule="evenodd" clip-rule="evenodd" d="M10 17V12C10 10.8954 10.8954 10 12 10H17V11.5H12C11.7239 11.5 11.5 11.7239 11.5 12V17H10Z" fill="#F1F1F1"/>
<path fill-rule="evenodd" clip-rule="evenodd" d="M17 8L12 8C10.8954 8 10 7.10457 10 6V1H11.5V6C11.5 6.27614 11.7239 6.5 12 6.5H17V8Z" fill="#F1F1F1"/>
<path fill-rule="evenodd" clip-rule="evenodd" d="M1 10L6 10C7.10457 10 8 10.8954 8 12L8 17H6.5L6.5 12C6.5 11.7239 6.27614 11.5 6 11.5L1 11.5V10Z" fill="#F1F1F1"/>
<path fill-rule="evenodd" clip-rule="evenodd" d="M8 1L8 6C8 7.10457 7.10457 8 6 8L1 8L1 6.5L6 6.5C6.27614 6.5 6.5 6.27614 6.5 6L6.5 1L8 1Z" fill="#F1F1F1"/>
</svg>
