<svg width="18" height="18" viewBox="0 0 18 18" fill="none" xmlns="http://www.w3.org/2000/svg">
<path fill-rule="evenodd" clip-rule="evenodd" d="M11 1.5H16C16.2761 1.5 16.5 1.72386 16.5 2V7H18V2C18 0.895431 17.1046 0 16 0H11V1.5ZM7 1.5V0H2C0.895431 0 0 0.89543 0 2V7H1.5V2C1.5 1.72386 1.72386 1.5 2 1.5H7ZM1.5 11H0V16C0 17.1046 0.89543 18 2 18H7V16.5H2C1.72386 16.5 1.5 16.2761 1.5 16V11ZM11 16.5V18H16C17.1046 18 18 17.1046 18 16V11H16.5V16C16.5 16.2761 16.2761 16.5 16 16.5H11Z" fill="#F1F1F1"/>
</svg>
