<svg width="18" height="18" viewBox="0 0 18 18" fill="none" xmlns="http://www.w3.org/2000/svg">
<path d="M18 4.76837e-07H14.7273L14.7273 10.8H18L18 4.76837e-07ZM1.19209e-07 9.9C1.19209e-07 10.89 0.736364 11.7 1.63636 11.7H6.79909L6.02182 15.813L5.99727 16.101C5.99727 16.47 6.13636 16.812 6.35727 17.055L7.22455 18L12.6082 12.069C12.9109 11.745 13.0909 11.295 13.0909 10.8L13.0909 1.8C13.0909 0.81 12.3545 4.76837e-07 11.4545 4.76837e-07H4.09091C3.41182 4.76837e-07 2.83091 0.45 2.58545 1.098L0.114545 7.443C0.0409087 7.65 1.19209e-07 7.866 1.19209e-07 8.1V9.819L0.00818212 9.828L1.19209e-07 9.9Z" fill="#F1F1F1"/>
</svg>
