<svg width="50" height="29" viewBox="0 0 50 29" fill="none" xmlns="http://www.w3.org/2000/svg">
<path fill-rule="evenodd" clip-rule="evenodd" d="M0 13.5714C0 8.443 4.15736 4.28564 9.28572 4.28564H40.7143C45.8426 4.28564 50 8.443 50 13.5714C50 18.6997 45.8426 22.8571 40.7143 22.8571H9.28572C4.15736 22.8571 0 18.6997 0 13.5714ZM7 7.75C7 7.33579 7.33579 7 7.75 7H11.0119C11.4261 7 11.7619 7.33579 11.7619 7.75V20.5357C11.7619 20.9499 11.4261 21.2857 11.0119 21.2857H7.75C7.33579 21.2857 7 20.9499 7 20.5357V7.75ZM17.2737 7C16.8595 7 16.5237 7.33579 16.5237 7.75V20.5357C16.5237 20.9499 16.8595 21.2857 17.2737 21.2857H20.5356C20.9498 21.2857 21.2856 20.9499 21.2856 20.5357V7.75C21.2856 7.33579 20.9498 7 20.5356 7H17.2737Z" fill="#BCBCBC"/>
<path fill-rule="evenodd" clip-rule="evenodd" d="M0 14.2857C0 6.39593 6.39593 0 14.2857 0C22.1755 0 28.5714 6.39593 28.5714 14.2857C28.5714 22.1755 22.1755 28.5714 14.2857 28.5714C6.39593 28.5714 0 22.1755 0 14.2857ZM7 7.75C7 7.33579 7.33579 7 7.75 7H11.0119C11.4261 7 11.7619 7.33579 11.7619 7.75V20.5357C11.7619 20.9499 11.4261 21.2857 11.0119 21.2857H7.75C7.33579 21.2857 7 20.9499 7 20.5357V7.75ZM17.2737 7C16.8595 7 16.5237 7.33579 16.5237 7.75V20.5357C16.5237 20.9499 16.8595 21.2857 17.2737 21.2857H20.5356C20.9498 21.2857 21.2856 20.9499 21.2856 20.5357V7.75C21.2856 7.33579 20.9498 7 20.5356 7H17.2737Z" fill="#747474"/>
</svg>
