<svg width="51" height="29" viewBox="0 0 51 29" fill="none" xmlns="http://www.w3.org/2000/svg">
<path fill-rule="evenodd" clip-rule="evenodd" d="M41.2143 5C46.3426 5 50.5 9.15736 50.5 14.2857C50.5 19.4141 46.3426 23.5714 41.2143 23.5714H9.78572C4.65736 23.5714 0.5 19.4141 0.5 14.2857C0.5 9.15736 4.65736 5 9.78572 5H41.2143ZM43.0892 16.0338C44.6846 15.2096 44.6846 13.0761 43.0892 12.2518L33.4561 7.27534C31.9055 6.4743 30 7.51691 30 9.16635V19.1193C30 20.7687 31.9055 21.8114 33.4561 21.0103L43.0892 16.0338Z" fill="#BCBCBC"/>
<path fill-rule="evenodd" clip-rule="evenodd" d="M36.2858 0C44.1756 0 50.5715 6.39593 50.5715 14.2857C50.5715 22.1755 44.1756 28.5714 36.2858 28.5714C28.396 28.5714 22.0001 22.1755 22.0001 14.2857C22.0001 6.39593 28.396 0 36.2858 0ZM43.0892 16.0338C44.6846 15.2096 44.6846 13.0761 43.0892 12.2518L33.4561 7.27534C31.9055 6.4743 30 7.51691 30 9.16635V19.1193C30 20.7687 31.9055 21.8114 33.4561 21.0103L43.0892 16.0338Z" fill="#F1F1F1"/>
</svg>
