<svg width="54" height="54" viewBox="0 0 54 54" fill="none" xmlns="http://www.w3.org/2000/svg">
<path d="M5.94677 31.3575L3.31554 32.805C2.71122 33.1365 2.27026 33.6826 2.08966 34.323C1.90905 34.9634 2.00361 35.6458 2.35251 36.22L6.26778 42.665C6.61672 43.2392 7.19142 43.6582 7.86547 43.8297C8.53952 44.0013 9.25771 43.9115 9.86204 43.58L12.5249 42.125C13.3193 41.6895 14.2204 41.4602 15.1377 41.4602C16.0549 41.4602 16.956 41.6895 17.7505 42.125L17.8031 42.1525C18.602 42.5875 19.2659 43.215 19.7279 43.9718C20.1899 44.7285 20.4335 45.5877 20.4343 46.4625V49.5C20.4343 50.163 20.7115 50.7989 21.205 51.2678C21.6985 51.7366 22.3677 52 23.0656 52H30.9593C31.6571 52 32.3264 51.7366 32.8198 51.2678C33.3133 50.7989 33.5905 50.163 33.5905 49.5V46.455C33.5903 45.5825 33.8322 44.7253 34.2918 43.9699C34.7514 43.2145 35.4126 42.5877 36.2086 42.1525L36.2638 42.1225C37.0583 41.687 37.9594 41.4577 38.8766 41.4577C39.7939 41.4577 40.695 41.687 41.4894 42.1225L44.1417 43.5775C44.7461 43.909 45.4642 43.9988 46.1383 43.8272C46.8123 43.6557 47.3871 43.2367 47.736 42.6625L51.6513 36.2175C51.8232 35.9327 51.9344 35.6185 51.9785 35.2929C52.0226 34.9672 51.9988 34.6366 51.9084 34.3197C51.818 34.0028 51.6627 33.7059 51.4516 33.446C51.2404 33.1861 50.9775 32.9683 50.6777 32.805L48.0465 31.3575C47.245 30.9196 46.5796 30.2883 46.1175 29.5275C45.6555 28.7667 45.4132 27.9034 45.4152 27.025V26.9725C45.4128 26.0944 45.655 25.2313 46.1171 24.4708C46.5792 23.7104 47.2449 23.0796 48.0465 22.6425L50.6777 21.195C51.282 20.8635 51.723 20.3174 51.9036 19.677C52.0842 19.0366 51.9896 18.3542 51.6407 17.78L47.7202 11.335C47.3713 10.7608 46.7966 10.3418 46.1225 10.1703C45.4485 9.99866 44.7303 10.0885 44.1259 10.42L41.4684 11.875C40.6739 12.3105 39.7728 12.5398 38.8556 12.5398C37.9383 12.5398 37.0372 12.3105 36.2428 11.875L36.2059 11.85C35.4071 11.415 34.7431 10.7875 34.2811 10.0307C33.8192 9.27398 33.5755 8.41483 33.5747 7.54V4.5C33.5747 3.83696 33.2975 3.20107 32.804 2.73223C32.3106 2.26339 31.6413 2 30.9435 2H23.0498C22.3519 2 21.6827 2.26339 21.1892 2.73223C20.6958 3.20107 20.4185 3.83696 20.4185 4.5V7.735C20.4174 8.54941 20.1906 9.34919 19.7611 10.054C19.3316 10.7587 18.7144 11.3437 17.9715 11.75L17.5689 11.97C16.8275 12.3761 15.9868 12.5899 15.1311 12.5899C14.2753 12.5899 13.4346 12.3761 12.6932 11.97L9.86731 10.42C9.26297 10.0885 8.54478 9.99866 7.87073 10.1703C7.19668 10.3418 6.62198 10.7608 6.27305 11.335L2.35777 17.78C2.00843 18.3536 1.91307 19.0355 2.09267 19.6759C2.27227 20.3162 2.71211 20.8626 3.31554 21.195L5.94677 22.6425C6.74822 23.0804 7.41366 23.7117 7.87572 24.4725C8.33778 25.2333 8.58005 26.0966 8.578 26.975V27.0275C8.58039 27.9056 8.33824 28.7687 7.87613 29.5292C7.41401 30.2896 6.74837 30.9204 5.94677 31.3575ZM26.9966 19.5C28.5578 19.5 30.084 19.9399 31.3821 20.764C32.6802 21.5881 33.692 22.7594 34.2894 24.1299C34.8869 25.5003 35.0432 27.0083 34.7386 28.4632C34.4341 29.918 33.6823 31.2544 32.5783 32.3033C31.4744 33.3522 30.0678 34.0665 28.5366 34.3559C27.0054 34.6453 25.4182 34.4968 23.9758 33.9291C22.5335 33.3614 21.3006 32.4001 20.4333 31.1668C19.5659 29.9334 19.1029 28.4834 19.1029 27C19.1029 25.0109 19.9346 23.1032 21.4149 21.6967C22.8953 20.2902 24.9031 19.5 26.9966 19.5Z" fill="#F1F1F1" stroke="#F1F1F1" stroke-width="2.08333"/>
</svg>
