<svg width="32" height="24" viewBox="0 0 32 24" fill="none" xmlns="http://www.w3.org/2000/svg">
<path d="M31.3035 4.53228C30.9365 3.12832 30.1318 1.93999 28.7529 1.56624C26.2541 0.88582 16 0.823528 16 0.823528C16 0.823528 5.74588 0.88582 3.24706 1.56624C1.86824 1.93999 1.06824 3.12832 0.696471 4.53228C0.0282353 7.07665 0 12.3235 0 12.3235C0 12.3235 0.0282353 17.5704 0.696471 20.1148C1.06353 21.5187 1.86824 22.7071 3.24706 23.0808C5.74588 23.7612 16 23.8235 16 23.8235C16 23.8235 26.2541 23.7612 28.7529 23.0808C30.1318 22.7071 30.9365 21.5187 31.3035 20.1148C31.9718 17.5704 32 12.3235 32 12.3235C32 12.3235 31.9718 7.07665 31.3035 4.53228Z" fill="#FF0000"/>
<path d="M23.2941 13.4735L13.9765 8.20269V18.7444" fill="white"/>
</svg>
