<svg width="90" height="20" viewBox="0 0 90 20" fill="none" xmlns="http://www.w3.org/2000/svg">
<path d="M28.105 3.12273C27.7762 1.89545 26.8036 0.927273 25.5662 0.595455C23.3288 2.16744e-07 14.3516 0 14.3516 0C14.3516 0 5.37899 2.16744e-07 3.13699 0.595455C1.90411 0.922728 0.931507 1.89091 0.598173 3.12273C0 5.35 0 10 0 10C0 10 0 14.65 0.598173 16.8773C0.92694 18.1045 1.89954 19.0727 3.13699 19.4045C5.37899 20 14.3516 20 14.3516 20C14.3516 20 23.3288 20 25.5662 19.4045C26.7991 19.0773 27.7717 18.1091 28.105 16.8773C28.7032 14.65 28.7032 10 28.7032 10C28.7032 10 28.7032 5.35 28.105 3.12273Z" fill="#FF0000"/>
<path d="M11.484 14.2863L18.9406 9.99999L11.484 5.71362V14.2863Z" fill="white"/>
<path d="M41.6621 18.1953C41.0959 17.8135 40.6895 17.2226 40.452 16.418C40.2146 15.6135 40.0913 14.5453 40.0913 13.209V11.3908C40.0913 10.0408 40.2283 8.95895 40.5023 8.14077C40.7762 7.32259 41.2055 6.72713 41.7854 6.35441C42.3653 5.98168 43.1278 5.79077 44.073 5.79077C45.0045 5.79077 45.7488 5.98168 46.3105 6.3635C46.8721 6.74532 47.2831 7.34077 47.5434 8.14986C47.8036 8.95895 47.9315 10.0408 47.9315 11.3862V13.2044C47.9315 14.5408 47.8036 15.6135 47.5525 16.4226C47.3013 17.2317 46.8904 17.8271 46.3196 18.1999C45.7534 18.5726 44.9817 18.7635 44.0091 18.7635C43.0137 18.768 42.2283 18.5771 41.6621 18.1953ZM44.8447 16.2317C45 15.8226 45.0822 15.1544 45.0822 14.2317V10.3271C45.0822 9.42713 45.0045 8.77259 44.8447 8.35441C44.6895 7.94077 44.4109 7.73168 44.0137 7.73168C43.6301 7.73168 43.3607 7.94077 43.2009 8.35441C43.0456 8.76804 42.9635 9.42713 42.9635 10.3271V14.2317C42.9635 15.1589 43.0365 15.8271 43.1872 16.2317C43.3379 16.6408 43.6119 16.8453 44.0091 16.8453C44.4109 16.8453 44.6849 16.6408 44.8447 16.2317Z" fill="white"/>
<path d="M85.2557 13.2408V13.8727C85.2557 14.6772 85.2785 15.2772 85.3288 15.6817C85.3744 16.0817 85.4749 16.3772 85.6256 16.559C85.7762 16.7408 86.0091 16.8363 86.3242 16.8363C86.7488 16.8363 87.0411 16.6727 87.1963 16.3454C87.3516 16.0181 87.4383 15.4727 87.452 14.709L89.895 14.8499C89.9087 14.959 89.9132 15.109 89.9132 15.2999C89.9132 16.459 89.5936 17.3227 88.9589 17.8954C88.3242 18.4681 87.4246 18.7545 86.2603 18.7545C84.863 18.7545 83.8858 18.3181 83.3242 17.4454C82.7625 16.5727 82.484 15.2272 82.484 13.3999V11.2136C82.484 9.33174 82.7762 7.96356 83.3562 7.09538C83.9361 6.23175 84.9315 5.79993 86.3424 5.79993C87.315 5.79993 88.0593 5.9772 88.5799 6.33174C89.1004 6.68629 89.4657 7.23629 89.6803 7.98629C89.8904 8.73629 90 9.77265 90 11.0908V13.2363H85.2557V13.2408ZM85.6164 7.96811C85.4749 8.14538 85.379 8.43629 85.3288 8.83629C85.2785 9.23629 85.2557 9.84993 85.2557 10.6636V11.5636H87.3287V10.6636C87.3287 9.85902 87.3014 9.24993 87.2466 8.83629C87.1918 8.42265 87.0913 8.1272 86.9498 7.95902C86.8082 7.79084 86.5845 7.70447 86.2831 7.70447C85.9817 7.69993 85.758 7.79084 85.6164 7.96811Z" fill="white"/>
<path d="M34.7671 13.0045L31.5433 1.41812H34.3561L35.484 6.66812C35.7716 7.96357 35.9817 9.06358 36.1187 9.97721H36.2009C36.2968 9.32267 36.5068 8.22721 36.8356 6.6863L38.0045 1.41357H40.8173L37.557 13.0045V18.5636H34.7671V13.0045Z" fill="white"/>
<path d="M57.0776 6.03638V18.5591H54.863L54.6164 17.0273H54.557C53.9543 18.1864 53.0502 18.7636 51.8493 18.7636C51.0137 18.7636 50.3972 18.4909 50 17.9455C49.6027 17.4 49.4064 16.55 49.4064 15.3909V6.03638H52.2374V15.2318C52.2374 15.7909 52.2968 16.1909 52.4201 16.4273C52.5434 16.6636 52.7488 16.7864 53.0365 16.7864C53.2831 16.7864 53.5205 16.7136 53.7443 16.5636C53.968 16.4136 54.137 16.2227 54.2465 15.9909V6.03638H57.0776Z" fill="white"/>
<path d="M71.6072 6.03638V18.5591H69.3925L69.146 17.0273H69.0866C68.4839 18.1864 67.5798 18.7636 66.3788 18.7636C65.5432 18.7636 64.9268 18.4909 64.5295 17.9455C64.1323 17.4 63.9359 16.55 63.9359 15.3909V6.03638H66.767V15.2318C66.767 15.7909 66.8263 16.1909 66.9496 16.4273C67.0729 16.6636 67.2784 16.7864 67.5661 16.7864C67.8126 16.7864 68.0501 16.7136 68.2738 16.5636C68.4976 16.4136 68.6665 16.2227 68.7761 15.9909V6.03638H71.6072Z" fill="white"/>
<path d="M64.7762 3.68627H61.9634V18.559H59.1917V3.68627H56.3789V1.41809H64.7716V3.68627H64.7762Z" fill="white"/>
<path d="M80.9817 8.0408C80.8082 7.24989 80.5342 6.67717 80.1507 6.32262C79.7671 5.96807 79.242 5.7908 78.5708 5.7908C78.0502 5.7908 77.5662 5.93626 77.1141 6.23171C76.6621 6.52262 76.3151 6.90898 76.0685 7.38626H76.0457V0.786255H73.3151V18.5635H75.653L75.9406 17.3772H76C76.2192 17.7999 76.5479 18.1317 76.9863 18.3772C77.4246 18.6226 77.9087 18.7454 78.4429 18.7454C79.4018 18.7454 80.105 18.3044 80.5571 17.4272C81.0091 16.5499 81.2329 15.1772 81.2329 13.309V11.3272C81.2374 9.92717 81.1507 8.83171 80.9817 8.0408ZM78.3835 13.1499C78.3835 14.0635 78.347 14.7772 78.2694 15.2954C78.1963 15.8135 78.0685 16.1817 77.8904 16.3999C77.7123 16.6181 77.4749 16.7272 77.1735 16.7272C76.9406 16.7272 76.726 16.6726 76.5251 16.5635C76.3288 16.4544 76.1644 16.2908 76.0411 16.0726V8.95898C76.137 8.61808 76.3014 8.3408 76.5342 8.12262C76.7671 7.90444 77.0183 7.79535 77.2922 7.79535C77.5799 7.79535 77.8036 7.90898 77.9589 8.13171C78.1141 8.35444 78.2237 8.73626 78.2877 9.26353C78.347 9.79535 78.379 10.5499 78.379 11.5317V13.1499H78.3835Z" fill="white"/>
</svg>
